<svg width="14" height="14" viewBox="0 0 14 14" fill="none" xmlns="http://www.w3.org/2000/svg">
<path d="M7.17324 4.89879L7.49723 5.65661C7.5192 5.72251 7.5796 5.76095 7.64001 5.76644L8.46373 5.84332C8.63946 5.8598 8.70535 6.07396 8.57905 6.18928L7.95852 6.73294C7.90909 6.77687 7.88713 6.84277 7.9036 6.90317L8.08482 7.71042C8.12326 7.88066 7.94204 8.01245 7.78828 7.92459L7.07988 7.50174C7.02497 7.4688 6.95358 7.4688 6.89866 7.50174L6.19026 7.92459C6.04199 8.01245 5.85528 7.88066 5.89372 7.71042L6.07494 6.90317C6.09142 6.84277 6.06945 6.77687 6.02003 6.73294L5.39949 6.18928C5.2677 6.07396 5.33909 5.8598 5.51481 5.84332L6.33853 5.76644C6.40443 5.76095 6.45935 5.72251 6.4868 5.6621L6.8108 4.90428C6.8767 4.73954 7.10185 4.73954 7.17324 4.89879Z" stroke="#F0C932" stroke-width="0.549146" stroke-miterlimit="10" stroke-linecap="round" stroke-linejoin="round"/>
<path d="M10.7247 6.50485C10.7389 4.44252 9.07857 2.75915 7.01623 2.74496C4.95389 2.73077 3.27053 4.39112 3.25634 6.45346C3.24214 8.5158 4.90249 10.1992 6.96483 10.2134C9.02717 10.2275 10.7105 8.56719 10.7247 6.50485Z" stroke="#F0C932" stroke-width="0.549146" stroke-miterlimit="10" stroke-linecap="round" stroke-linejoin="round"/>
<path d="M6.48128 10.1761L5.55322 12.51L4.37805 11.1645L2.60431 11.3293L3.77948 8.38586" stroke="#F0C932" stroke-width="0.549146" stroke-miterlimit="10" stroke-linecap="round" stroke-linejoin="round"/>
<path d="M7.49174 10.1761L8.42529 12.51L9.59498 11.1645L11.3742 11.3293L10.1935 8.38586" stroke="#F0C932" stroke-width="0.549146" stroke-miterlimit="10" stroke-linecap="round" stroke-linejoin="round"/>
</svg>
