<svg width="6" height="6" viewBox="0 0 6 6" fill="none" xmlns="http://www.w3.org/2000/svg">
<path d="M3.13851 1.31425C2.42643 1.31425 1.85207 1.88566 1.85207 2.59407C1.85207 3.30248 2.42643 3.87389 3.13851 3.87389C3.85059 3.87389 4.42496 3.30248 4.42496 2.59407C4.42496 1.88566 3.85059 1.31425 3.13851 1.31425ZM3.13851 3.42612C2.67835 3.42612 2.30215 3.05298 2.30215 2.59407C2.30215 2.13516 2.67723 1.76202 3.13851 1.76202C3.5998 1.76202 3.97487 2.13516 3.97487 2.59407C3.97487 3.05298 3.59868 3.42612 3.13851 3.42612ZM4.77764 1.2619C4.77764 1.42787 4.64328 1.56042 4.47758 1.56042C4.31076 1.56042 4.17752 1.42675 4.17752 1.2619C4.17752 1.09705 4.31187 0.96339 4.47758 0.96339C4.64328 0.96339 4.77764 1.09705 4.77764 1.2619ZM5.62967 1.56487C5.61064 1.165 5.51883 0.810792 5.22437 0.518963C4.93103 0.227134 4.57499 0.135798 4.17304 0.115749C3.75878 0.0923578 2.51712 0.0923578 2.10286 0.115749C1.70204 0.134684 1.346 0.22602 1.05154 0.517849C0.757078 0.809679 0.666388 1.16388 0.646235 1.56376C0.622723 1.97588 0.622723 3.21114 0.646235 3.62327C0.665269 4.02314 0.757078 4.37735 1.05154 4.66918C1.346 4.96101 1.70092 5.05234 2.10286 5.07239C2.51712 5.09578 3.75878 5.09578 4.17304 5.07239C4.57499 5.05345 4.93103 4.96212 5.22437 4.66918C5.51771 4.37735 5.60952 4.02314 5.62967 3.62327C5.65318 3.21114 5.65318 1.977 5.62967 1.56487ZM5.09449 4.06547C5.00716 4.28378 4.8381 4.45197 4.61753 4.53997C4.28724 4.67029 3.50351 4.64022 3.13851 4.64022C2.77352 4.64022 1.98866 4.66918 1.65949 4.53997C1.44005 4.45309 1.27098 4.2849 1.18253 4.06547C1.05154 3.73688 1.08177 2.95719 1.08177 2.59407C1.08177 2.23095 1.05266 1.45014 1.18253 1.12267C1.26986 0.904356 1.43893 0.736164 1.65949 0.64817C1.98978 0.517849 2.77352 0.547923 3.13851 0.547923C3.50351 0.547923 4.28836 0.518963 4.61753 0.64817C4.83698 0.73505 5.00604 0.903242 5.09449 1.12267C5.22549 1.45126 5.19526 2.23095 5.19526 2.59407C5.19526 2.95719 5.22549 3.738 5.09449 4.06547Z" fill="white"/>
</svg>
